<?xml version="1.0"?><svg width="339.46411" height="400.15149" xmlns="http://www.w3.org/2000/svg">
 <title>Cartoon Robot</title>
 <metadata id="metadata4">image/svg+xmlCartoon Robot18th May 2012Sirrob01Public DomainSimple Cartoon robotrobotcartoonandroidsci-fitechnologyclip artartificialcomiciconsciencetoy</metadata>
 <g>
  <title>Layer 1</title>
  <g id="g4344" transform="matrix(-1.40342 0 0 1.40342 890.507 -241.213)">
   <rect ry="6.363961" y="424.331558" x="474.334542" height="12.727922" width="36.769554" id="rect4346" stroke-dashoffset="0" stroke-miterlimit="4" stroke-linejoin="round" stroke-linecap="round" stroke-width="2" stroke="#484848" fill="#a4a4a4"/>
   <rect id="rect4348" width="36.769554" height="12.727922" x="474.334542" y="412.331558" ry="6.363961" stroke-dashoffset="0" stroke-miterlimit="4" stroke-linejoin="round" stroke-linecap="round" stroke-width="2" stroke="#484848" fill="#a4a4a4"/>
   <rect ry="6.363961" y="400.331558" x="474.334542" height="12.727922" width="36.769554" id="rect4350" stroke-dashoffset="0" stroke-miterlimit="4" stroke-linejoin="round" stroke-linecap="round" stroke-width="2" stroke="#484848" fill="#a4a4a4"/>
   <rect id="rect4352" width="36.769554" height="12.727922" x="473.980992" y="387.957198" ry="6.363961" stroke-dashoffset="0" stroke-miterlimit="4" stroke-linejoin="round" stroke-linecap="round" stroke-width="2" stroke="#484848" fill="#a4a4a4"/>
   <path d="m499.613678,387.4823c2.310333,4.010406 4.232239,8.062958 0,12.727905c2.658356,3.690033 5.300171,7.38269 -0.176758,12.37439c5.116211,4.781067 3.112122,8.375427 0.353516,11.844025c4.541687,7.656769 0.512146,8.759064 0,12.551147l10.606598,0.176788l-0.883881,-2.651672l2.121338,-3.181976l-1.060669,-4.596191l-3.358734,-2.651642l3.535492,-2.651672l0.707153,-3.889069l-3.712311,-4.949738l2.474854,-2.298096l0.88385,-4.419434l-4.242584,-5.833618l3.181946,-2.474884l1.237427,-3.712311l-2.298065,-4.419403l-2.298096,-1.94455l-6.187225,0.530334l-0.88385,-0.530334z" id="path4354" fill="#808080"/>
   <path id="path4356" d="m485.332733,387.6073c-2.310333,4.010406 -4.2323,8.062958 0,12.727905c-2.658386,3.690033 -5.300232,7.38269 0.176758,12.37439c-5.116272,4.781067 -3.112152,8.375427 -0.353546,11.844025c-4.541687,7.656769 -0.512115,8.759064 0,12.551147l-10.606598,0.176788l0.88385,-2.651672l-2.121277,-3.181976l1.060638,-4.596191l3.358765,-2.651642l-3.535553,-2.651672l-0.707092,-3.889069l3.712311,-4.949738l-2.474884,-2.298096l-0.883881,-4.419434l4.242645,-5.833618l-3.182007,-2.474884l-1.237396,-3.712311l2.298096,-4.419403l2.298065,-1.94455l6.187195,0.530334l0.883911,-0.530334z" fill="#ffffff" opacity="0.63"/>
   <rect id="rect4358" width="36.769554" height="12.102922" x="474.334542" y="424.956558" ry="6.051461" stroke-dashoffset="0" stroke-miterlimit="4" stroke-linejoin="round" stroke-linecap="round" stroke-width="2" stroke="#484848" fill="none"/>
   <rect ry="5.988961" y="413.081558" x="474.334542" height="11.977922" width="36.769554" id="rect4360" stroke-dashoffset="0" stroke-miterlimit="4" stroke-linejoin="round" stroke-linecap="round" stroke-width="2" stroke="#484848" fill="none"/>
   <rect id="rect4362" width="36.769554" height="12.227922" x="474.334542" y="400.831558" ry="6.113961" stroke-dashoffset="0" stroke-miterlimit="4" stroke-linejoin="round" stroke-linecap="round" stroke-width="2" stroke="#484848" fill="none"/>
   <rect ry="6.363961" y="387.957198" x="473.980992" height="12.727922" width="36.769554" id="rect4364" stroke-dashoffset="0" stroke-miterlimit="4" stroke-linejoin="round" stroke-linecap="round" stroke-width="2" stroke="#484848" fill="none"/>
   <path d="m511.457733,455.187775c-3.851013,0.314819 -61.685181,1.012634 -62.932526,-0.353546c0,-13.570709 14.696686,-24.57196 32.825897,-24.57196c10.308472,0 23.003357,1.789093 29.021362,4.877869c1.007202,1.848907 1.085266,14.193359 1.085266,20.047638z" id="path4366" stroke-dashoffset="0" stroke-miterlimit="4" stroke-linejoin="round" stroke-linecap="round" stroke-width="2" stroke="#484848" fill="#a4a4a4"/>
   <path d="m448.701996,452.359344c31.846008,-1.124481 62.48877,3.726929 56.038177,-19.091888l6.187225,2.121307l0.530334,20.152557l-62.578949,-0.176788l-0.176788,-3.005188z" id="path4368" fill="#808080"/>
   <path id="path4370" d="m511.457733,455.187775c-3.851013,0.314819 -61.685181,1.012634 -62.932526,-0.353546c0,-13.570709 14.696686,-24.57196 32.825897,-24.57196c10.308472,0 23.003357,1.789093 29.021362,4.877869c1.007202,1.848907 1.085266,14.193359 1.085266,20.047638z" stroke-dashoffset="0" stroke-miterlimit="4" stroke-linejoin="round" stroke-linecap="round" stroke-width="2" stroke="#484848" fill="none"/>
   <path id="path4372" d="m454.63913,445.335693c7.081482,-6.012878 14.235687,-10.687775 31.485229,-12.141296c-12.861511,-2.167175 -25.950195,1.39389 -31.485229,12.141296z" fill="#ffffff" opacity="0.629808"/>
  </g>
  <rect y="97.592256" x="254.594204" height="39.694729" width="18.075279" id="rect4181" stroke-dashoffset="0" stroke-miterlimit="4" stroke-linejoin="round" stroke-linecap="round" stroke-width="2.806841" stroke="#484848" fill="#a4a4a4"/>
  <rect y="99.005526" x="249.410184" height="9.122234" width="21.928448" id="rect4274" fill="#e3e3e3"/>
  <rect id="rect4276" width="21.928448" height="9.122234" x="249.344394" y="126.766956" fill="#000000" opacity="0.35"/>
  <rect id="rect3654" width="51.199978" height="19.288023" x="147.264684" y="159.807896" stroke-dashoffset="0" stroke-miterlimit="4" stroke-linejoin="round" stroke-linecap="round" stroke-width="2.806841" stroke="#484848" fill="#a4a4a4"/>
  <rect y="179.176276" x="143.125764" height="19.145332" width="59.828667" id="rect4203" stroke-dashoffset="0" stroke-miterlimit="4" stroke-linejoin="round" stroke-linecap="round" stroke-width="2.806841" stroke="#484848" fill="#a4a4a4"/>
  <rect id="rect3652" width="129.85512" height="115.09629" x="106.309964" y="188.222446" stroke-dashoffset="0" stroke-miterlimit="4" stroke-linejoin="round" stroke-linecap="round" stroke-width="2.806841" stroke="#484848" fill="#a4a4a4"/>
  <rect id="rect4179" width="18.075279" height="39.694729" x="69.342684" y="97.592256" stroke-dashoffset="0" stroke-miterlimit="4" stroke-linejoin="round" stroke-linecap="round" stroke-width="2.806841" stroke="#484848" fill="#a4a4a4"/>
  <rect id="rect4270" width="21.928448" height="9.122234" x="70.452114" y="98.873956" fill="#e3e3e3"/>
  <rect y="126.942386" x="70.802974" height="9.122234" width="21.928448" id="rect4272" fill="#000000" opacity="0.35"/>
  <rect id="rect4166" width="169.30867" height="87.083885" x="86.051694" y="72.8344" stroke-dashoffset="0" stroke-miterlimit="4" stroke-linejoin="round" stroke-linecap="round" stroke-width="2.806841" stroke="#484848" fill="#a4a4a4"/>
  <path d="m231.311371,74.200699l22.682709,0l0,92.502899l-22.682709,0c6.553223,-30.834305 10.453461,-61.668579 0,-92.502899z" id="rect4187" fill="#000000" opacity="0.328462"/>
  <path d="m78.598717,123.151497l23.159737,0l21.68338,22.997124l92.638885,0l24.636017,-22.997124l23.159729,0l0,47.409447l-185.277748,0l0,-47.409447z" id="rect4168" stroke-dashoffset="0" stroke-miterlimit="4" stroke-linejoin="round" stroke-linecap="round" stroke-width="2.806841" stroke="#484848" fill="#a4a4a4"/>
  <path id="path4171" d="m160.391953,102.838028c0,10.902596 -8.838287,19.740913 -19.740921,19.740913c-10.902618,0 -19.740974,-8.838333 -19.740974,-19.740913c0,-10.902618 8.838356,-19.740952 19.740974,-19.740952c10.902634,0 19.740921,8.838333 19.740921,19.740952z" stroke="#484848" fill="#ffffff"/>
  <path d="m219.579651,101.774803c0,10.90258 -8.838287,19.740906 -19.740921,19.740906c-10.902618,0 -19.740967,-8.838326 -19.740967,-19.740906c0,-10.902626 8.838348,-19.740952 19.740967,-19.740952c10.902634,0 19.740921,8.838326 19.740921,19.740952z" id="path4173" stroke="#484848" fill="#ffffff"/>
  <path id="path4175" d="m147.369019,107.843094c0,6.865936 -5.565903,12.431885 -12.4319,12.431885c-6.865921,0 -12.431831,-5.565948 -12.431831,-12.431885c0,-6.865936 5.56591,-12.431885 12.431831,-12.431885c6.865997,0 12.4319,5.565948 12.4319,12.431885z" fill="#000000"/>
  <path d="m206.556702,107.134262c0,6.865936 -5.565903,12.431885 -12.4319,12.431885c-6.865921,0 -12.431839,-5.565948 -12.431839,-12.431885c0,-6.865929 5.565918,-12.431885 12.431839,-12.431885c6.865997,0 12.4319,5.565956 12.4319,12.431885z" id="path4177" fill="#000000"/>
  <path d="m88.835602,119.92054l1.417671,-42.884499l74.073204,-1.063248l-67.693726,6.379517l-7.79715,37.56823z" id="path4185" fill="#e5e5e5"/>
  <path d="m241.235016,124.527939l21.265167,-0.088486l0,44.656555l-34.0242,0c2.948639,-9.24765 4.72171,-19.083099 -0.175629,-32.253738l12.934662,-12.31424l0,-0.000031l0,-0.000061z" id="rect4189" fill="#000000" opacity="0.328462"/>
  <path id="path4192" d="m81.417542,134.051834l0.13446,33.993073l61.936157,0.055603l-56.331268,-5.333023l-5.73938,-28.715591l0.000031,-0.000031l0,-0.000031z" fill="#e5e5e5"/>
  <path d="m164.680878,29.685909l6.450409,0l8.931305,43.168034l-24.809204,0l9.42749,-43.168034z" id="rect4194" stroke-miterlimit="4" stroke-width="2.806841" stroke="#484848" fill="#a4a4a4"/>
  <path id="path4197" d="m184.032043,18.025591c0,9.180159 -6.997696,16.622168 -15.629791,16.622168c-8.632111,0 -15.629807,-7.442009 -15.629807,-16.622168c0,-9.180161 6.997696,-16.622171 15.629807,-16.622171c8.632095,0 15.629791,7.44201 15.629791,16.622171z" stroke-miterlimit="4" stroke-width="2" stroke="#00054d" fill="#604aff"/>
  <path d="m156.994751,11.48203c7.074036,-4.26973 14.727936,-3.84633 22.809601,0.03944c-6.981537,-8.26794 -14.318909,-11.81103 -22.809601,-0.03944z" id="path4199" fill="#ffffff" opacity="0.629808"/>
  <path d="m154.657349,22.650681c10.233002,6.983259 19.557739,7.880859 27.454407,-0.789431c-2.00824,11.642111 -20.57608,18.2087 -27.454407,0.789431z" id="path4201" fill="#000000" opacity="0.35"/>
  <rect id="rect4205" width="57.148537" height="6.976249" x="142.573274" y="272.567696" ry="3.393851" stroke-dashoffset="0" stroke-miterlimit="4" stroke-linejoin="round" stroke-linecap="round" stroke-width="1.795129" stroke="#484848" fill="#484848"/>
  <rect ry="3.393851" y="285.900176" x="143.274994" height="6.976249" width="57.148537" id="rect4207" stroke-dashoffset="0" stroke-miterlimit="4" stroke-linejoin="round" stroke-linecap="round" stroke-width="1.795129" stroke="#484848" fill="#484848"/>
  <path id="path4209" d="m133.087341,282.980408c0,4.991089 -4.046143,9.037262 -9.037262,9.037262c-4.991127,0 -9.037277,-4.046173 -9.037277,-9.037262c0,-4.99118 4.04615,-9.037323 9.037277,-9.037323c4.991119,0 9.037262,4.046143 9.037262,9.037323z" stroke-dashoffset="0" stroke-miterlimit="4" stroke-linejoin="round" stroke-linecap="round" stroke-width="2" stroke="#484848" fill="#ff0000"/>
  <path d="m228.519943,282.980408c0,4.991089 -4.046143,9.037262 -9.037262,9.037262c-4.991135,0 -9.037277,-4.046173 -9.037277,-9.037262c0,-4.99118 4.046143,-9.037323 9.037277,-9.037323c4.991119,0 9.037262,4.046143 9.037262,9.037323z" id="path4211" stroke-dashoffset="0" stroke-miterlimit="4" stroke-linejoin="round" stroke-linecap="round" stroke-width="2" stroke="#484848" fill="#ff0000"/>
  <rect id="rect4213" width="114.72964" height="70.171028" x="113.607304" y="196.587116" ry="3.393851" stroke-dashoffset="0" stroke-miterlimit="4" stroke-linejoin="round" stroke-linecap="round" stroke-width="2.806841" stroke="#484848" fill="#dbfffc"/>
  <path d="m114.30899,237.286301l13.332489,0l9.823944,-30.173538l5.964539,30.524399l7.367981,-13.332504l11.227356,29.822693l6.666229,-19.297028l15.437653,-0.350861l6.315369,-23.156433l6.315399,37.541504l6.315399,-24.559875l3.508545,12.630798l20.349609,0" id="path4215" stroke-miterlimit="4" stroke-linejoin="round" stroke-linecap="round" stroke-width="2.806841" stroke="#00a799" fill="none"/>
  <path d="m117.009949,263.516205l0.025688,-57.894516c-0.127403,-3.825577 2.927536,-5.799042 5.957314,-5.927933l98.441681,-0.248398l-94.572723,5.724747c-3.366325,0.425552 -4.780891,2.245193 -4.875366,5.007751l-5.1521,43.338898l0.000092,0.000061l0.175415,9.99939z" id="path4280" fill="#ffffff" opacity="0.95"/>
  <rect ry="3.393851" y="196.587116" x="113.607304" height="70.171028" width="114.72964" id="rect4278" stroke-dashoffset="0" stroke-miterlimit="4" stroke-linejoin="round" stroke-linecap="round" stroke-width="2.806841" stroke="#484848" fill="none"/>
  <path id="path4282" d="m117.175957,280.555878c4.265663,-2.316772 8.880997,-2.087036 13.75425,0.021301c-4.209869,-4.486267 -8.634338,-6.408752 -13.75425,-0.021301z" fill="#ffffff" opacity="0.629808"/>
  <path d="m212.691437,280.493866c4.265656,-2.316772 8.880981,-2.087036 13.754242,0.021301c-4.2099,-4.486267 -8.634338,-6.408783 -13.754242,-0.021301z" id="path4284" fill="#ffffff" opacity="0.629808"/>
  <g id="g4328" transform="matrix(1.40342 0 0 1.40342 -142.699 -240.717)">
   <rect id="rect4249" width="36.769554" height="12.727922" x="188.30609" y="424.331558" ry="6.363961" stroke-dashoffset="0" stroke-miterlimit="4" stroke-linejoin="round" stroke-linecap="round" stroke-width="2" stroke="#484848" fill="#a4a4a4"/>
   <rect ry="6.363961" y="412.331558" x="188.30609" height="12.727922" width="36.769554" id="rect4247" stroke-dashoffset="0" stroke-miterlimit="4" stroke-linejoin="round" stroke-linecap="round" stroke-width="2" stroke="#484848" fill="#a4a4a4"/>
   <rect id="rect4245" width="36.769554" height="12.727922" x="188.30609" y="400.331558" ry="6.363961" stroke-dashoffset="0" stroke-miterlimit="4" stroke-linejoin="round" stroke-linecap="round" stroke-width="2" stroke="#484848" fill="#a4a4a4"/>
   <rect ry="6.363961" y="387.957198" x="187.95254" height="12.727922" width="36.769554" id="rect4241" stroke-dashoffset="0" stroke-miterlimit="4" stroke-linejoin="round" stroke-linecap="round" stroke-width="2" stroke="#484848" fill="#a4a4a4"/>
   <path id="path4314" d="m213.585098,387.4823c2.310333,4.010406 4.232269,8.062958 0,12.727905c2.658386,3.690033 5.300201,7.38269 -0.176758,12.37439c5.116241,4.781067 3.112152,8.375427 0.353546,11.844025c4.541656,7.656769 0.512115,8.759064 0,12.551147l10.606598,0.176788l-0.883881,-2.651672l2.121307,-3.181976l-1.060638,-4.596191l-3.358765,-2.651642l3.535522,-2.651672l0.707123,-3.889069l-3.712311,-4.949738l2.474854,-2.298096l0.883881,-4.419434l-4.242615,-5.833618l3.181976,-2.474884l1.237427,-3.712311l-2.298096,-4.419403l-2.298096,-1.94455l-6.187195,0.530334l-0.883881,-0.530334z" fill="#808080"/>
   <path d="m199.304153,387.6073c-2.310333,4.010406 -4.2323,8.062958 0,12.727905c-2.658386,3.690033 -5.300201,7.38269 0.176758,12.37439c-5.116241,4.781067 -3.112152,8.375427 -0.353546,11.844025c-4.541656,7.656769 -0.512115,8.759064 0,12.551147l-10.606598,0.176788l0.883881,-2.651672l-2.121307,-3.181976l1.060638,-4.596191l3.358765,-2.651642l-3.535522,-2.651672l-0.707123,-3.889069l3.712311,-4.949738l-2.474884,-2.298096l-0.883881,-4.419434l4.242645,-5.833618l-3.181976,-2.474884l-1.237427,-3.712311l2.298096,-4.419403l2.298096,-1.94455l6.187195,0.530334l0.883881,-0.530334z" id="path4326" fill="#ffffff" opacity="0.63"/>
   <rect ry="6.051461" y="424.956558" x="188.30609" height="12.102922" width="36.769554" id="rect4324" stroke-dashoffset="0" stroke-miterlimit="4" stroke-linejoin="round" stroke-linecap="round" stroke-width="2" stroke="#484848" fill="none"/>
   <rect id="rect4322" width="36.769554" height="11.977922" x="188.30609" y="413.081558" ry="5.988961" stroke-dashoffset="0" stroke-miterlimit="4" stroke-linejoin="round" stroke-linecap="round" stroke-width="2" stroke="#484848" fill="none"/>
   <rect ry="6.113961" y="400.831558" x="188.30609" height="12.227922" width="36.769554" id="rect4320" stroke-dashoffset="0" stroke-miterlimit="4" stroke-linejoin="round" stroke-linecap="round" stroke-width="2" stroke="#484848" fill="none"/>
   <rect id="rect4318" width="36.769554" height="12.727922" x="187.95254" y="387.957198" ry="6.363961" stroke-dashoffset="0" stroke-miterlimit="4" stroke-linejoin="round" stroke-linecap="round" stroke-width="2" stroke="#484848" fill="none"/>
   <path id="path4259" d="m225.429153,455.187775c-3.851013,0.314819 -61.68515,1.012634 -62.932526,-0.353546c0,-13.570709 14.696686,-24.57196 32.825928,-24.57196c10.308441,0 23.003326,1.789093 29.021362,4.877869c1.007202,1.848907 1.085236,14.193359 1.085236,20.047638z" stroke-dashoffset="0" stroke-miterlimit="4" stroke-linejoin="round" stroke-linecap="round" stroke-width="2" stroke="#484848" fill="#a4a4a4"/>
   <path id="path4308" d="m162.673416,452.359344c31.846039,-1.124481 62.48877,3.726929 56.038208,-19.091888l6.187195,2.121307l0.530334,20.152557l-62.578949,-0.176788l-0.176788,-3.005188z" fill="#808080"/>
   <path d="m225.429153,455.187775c-3.851013,0.314819 -61.68515,1.012634 -62.932526,-0.353546c0,-13.570709 14.696686,-24.57196 32.825928,-24.57196c10.308441,0 23.003326,1.789093 29.021362,4.877869c1.007202,1.848907 1.085236,14.193359 1.085236,20.047638z" id="path4310" stroke-dashoffset="0" stroke-miterlimit="4" stroke-linejoin="round" stroke-linecap="round" stroke-width="2" stroke="#484848" fill="none"/>
   <path d="m168.61055,445.335693c7.081482,-6.012878 14.235718,-10.687775 31.485229,-12.141296c-12.861481,-2.167175 -25.950165,1.39389 -31.485229,12.141296z" id="path4312" fill="#ffffff" opacity="0.629808"/>
  </g>
 </g>
</svg>